<svg id="visual" viewBox="0 0 900 600" width="900" height="600" xmlns="http://www.w3.org/2000/svg" xmlns:xlink="http://www.w3.org/1999/xlink" version="1.1"><path d="M0 193L21.5 181.2C43 169.3 86 145.7 128.8 130.7C171.7 115.7 214.3 109.3 257.2 122.8C300 136.3 343 169.7 385.8 172C428.7 174.3 471.3 145.7 514.2 137.3C557 129 600 141 642.8 148.7C685.7 156.3 728.3 159.7 771.2 162.8C814 166 857 169 878.5 170.5L900 172L900 0L878.5 0C857 0 814 0 771.2 0C728.3 0 685.7 0 642.8 0C600 0 557 0 514.2 0C471.3 0 428.7 0 385.8 0C343 0 300 0 257.2 0C214.3 0 171.7 0 128.8 0C86 0 43 0 21.5 0L0 0Z" fill="#3d0099" stroke-linecap="round" stroke-linejoin="miter"></path></svg>